<svg version="1.2" xmlns="http://www.w3.org/2000/svg" viewBox="0 0 1024 1024" width="1024" height="1024">
	<title>logoMoveHive_sem_fundo</title>
	<style>
		.s0 { fill: #000000 } 
		.s1 { fill: #f9c232 } 
	</style>
	<g id="Layer 1 copy 2">
		<path id="Path 0" class="s0" d="m602.9 425.3c-0.6 1.7-1.3 3.6-1.4 4.2-0.1 0.5-7.5 22.9-16.4 49.7-8.8 26.9-16.4 48.8-16.8 48.8-0.5 0-5.3-13.6-10.7-30.2-5.5-16.7-13.2-40.2-17.1-52.3l-7.2-22c-39.9-0.5-41.3-0.4-40.7 1.2 0.3 1 4.8 13.7 10 28.3 5.3 14.6 12.7 35.5 16.6 46.5 3.9 11 7.1 20.5 7.3 21 0.1 0.5 0.7 2.4 1.4 4 0.7 1.6 3.3 8.9 5.7 16 2.5 7.1 5.1 14.6 5.8 16.5 0.8 1.9 1.4 3.7 1.4 4 0 0.3 0.6 1.9 1.2 3.5 0.7 1.6 1.8 4.6 2.5 6.5l1.2 3.5h45.6c10.4-30.2 17.3-50 22-63.5 4.7-13.5 9.8-28.1 11.4-32.5 1.5-4.4 3.1-8.1 3.6-8.3 0.4-0.1 0.7-1.1 0.7-2.2 0-1.1 3.4-11.6 7.5-23.3 4.1-11.6 7.5-21.5 7.5-22 0-0.4-9-0.7-19.9-0.7h-19.9zm54 73.2v76.5h108v-32h-71v-30h60v-31h-60v-27h70v-33h-107zm-500 0.5v76h37c0-67.8 0.3-87.8 0.7-88.2 0.5-0.4 1.5 0.3 2.4 1.5 0.9 1.3 3.3 5.2 5.5 8.7 2.1 3.6 4.4 7.3 4.9 8.2 0.6 1 5.1 8.3 10 16.3l9 14.5h16.5c11.8-18.9 19.4-31.2 24.6-39.5l9.4-15v93.5h37v-152h-42c-1.9 3.9-6.6 11.8-11.7 20-6.4 10.4-9.7 14.8-10.5 14.3q-1.3-0.7-0.5 0.5c0.4 0.8-2.2 5.9-6.5 12.9-4 6.4-7.5 11.8-7.8 11.9-0.3 0.2-2.5-2.9-4.9-6.9-2.4-3.9-5.2-8.5-6.3-10.2-1-1.6-6.1-9.7-11.3-18-5.2-8.2-10.7-17.1-12.2-19.7l-2.8-4.7-40.5-0.1zm230 132.3v30.7h-59v-61h-39v151h39v-57l58.5 0.5 0.5 56.5h38v-151l-38-0.5zm65 45.3v75.5h39v-151h-39zm56-61.3c2.7 7.9 8 23.3 11.8 34.3 3.9 11 13.1 37.3 20.5 58.5 7.5 21.2 13.8 39.7 14.1 41.2l0.6 2.8 51.2-0.5c15.9-45.7 23.7-68.7 27.8-80.5 4-11.8 9.3-27.1 11.7-34 2.5-6.9 4.9-13 5.4-13.5 0.5-0.5 0.7-1.3 0.4-1.8-0.3-0.4 0-1.6 0.5-2.7 0.8-1.5 0.5-2.9-0.9-5.8-1.1-2-2.8-5.6-3.8-8l-1.8-4.3-28 0.1c-3.6 11.2-11.8 36.5-20.7 63.5l-16 49c-2.8-7.8-7.2-21-11.6-34.5-4.4-13.5-11.6-36-16.1-50-4.5-14-8.4-26.1-8.6-26.8-0.4-0.9-5.5-1.2-20.9-1.2h-20.4zm185.6-10.5c-0.3 2.1-2.4 6.6-4.6 10-2.2 3.4-5 6.8-6.2 7.4-1.3 0.6-5.3 1.4-9 1.7l-6.8 0.6v127.5h98v-31h-62v-30h53v-30h-53v-28h62v-32h-70.8z"/>
		<path id="Path 1" class="s1" d="m688 173.1c-6.7 0.5-12 1.7-18 3.9-4.7 1.8-10.5 3.9-13 4.8-2.5 0.8-6.9 3-9.8 4.9-2.9 1.8-7.6 6.3-10.5 10.1-3 3.7-6.7 7.8-8.3 9.2-1.6 1.4-3.6 3.8-4.4 5.3-0.8 1.5-1.8 2.7-2.2 2.7-0.5 0-0.8 0.9-0.8 2 0 1.1-0.5 2-1 2-0.5 0-1 2.5-1 5.5 0 3.6 0.5 6 1.5 7 1.3 1.3 12.2 1.5 85.5 1.5 65.2 0 84.6-0.3 86.5-1.2 2.3-1.2 2.6-1.9 2.5-6.8-0.1-4.9-0.5-6-3.9-10-2.2-2.5-5.1-6.7-6.5-9.5-1.4-2.7-3.6-6.1-4.8-7.5-1.3-1.4-4-3.5-6.1-4.7-2-1.3-3.9-3.2-4.2-4.3-0.3-1.1-1.1-2-1.7-2-0.7 0-2.2-0.8-3.3-1.7-1.1-1-3.2-2.5-4.8-3.3-1.5-0.8-2.7-1.8-2.7-2.2 0-0.5-0.7-0.8-1.5-0.8-0.8 0-2.3-0.4-3.2-0.9-1-0.5-3.4-1.3-5.3-1.9-1.9-0.6-8.5-1.6-14.5-2.2-6-0.5-16.4-0.9-23-0.9-6.6 0.1-16.3 0.5-21.5 1zm-108.5 152.3c-2.2 0.6-5 2.1-6.2 3.3-2.2 2.2-2.3 2.9-2.3 22.8 0 13 0.4 20.5 1 20.5 0.5 0 1 1.4 1 3 0 1.6 0.5 3 1 3 0.5 0 1 0.7 1 1.5 0 0.8 1.1 2.6 2.5 4 1.4 1.4 3.6 2.5 5 2.5 1.4 0 2.5 0.4 2.5 1 0 0.6 1.8 1 4 1 2.2 0 4 0.4 4 1 0 0.6 0.9 1 2 1 1.9 0 2 0.7 2 11 0 6.7 0.4 11 1 11 0.5 0 1 1.6 1 3.5 0 1.9 0.7 4.2 1.5 5 1.2 1.2 5.2 1.5 22.5 1.5 11.5 0 21 0.3 21 0.7 0 0.5-3.2 9.8-7.1 20.8-5.9 17-6.8 20.1-5.4 20.7 0.8 0.5 1.5 1.2 1.5 1.8 0 0.6 1.8 2.8 4 5 2.2 2.2 4 4.6 4 5.2 0 0.7 0.9 2 2 2.8 1.5 1.1 2 2.6 2 6.2 0 2.7 0.5 4.8 1 4.8 0.6 0 1 7 1 19 0 12-0.4 19-1 19-0.6 0-1 12.7-1 36 0 34.4 0.1 36.2 2.1 40.7 1.2 2.7 3 6.6 4 8.8 1.1 2.2 1.9 4.3 1.9 4.7 0 0.5 1 1.8 2.3 3.1 1.2 1.3 3.4 2.6 5 3 1.5 0.4 6.9 0.2 12-0.3 5-0.6 10.1-1.7 11.2-2.4 1.1-0.7 3.5-3.5 5.2-6.2 1.8-2.7 4-7.4 4.8-10.4 0.9-3.4 1.5-10 1.5-17.3 0-8.5 0.3-11.8 1.3-12.1 0.6-0.3-7.9-0.5-19-0.5l-20.3-0.1v-153h107v33h-70v27h60v31h-60v30c13.3 0 15.1-0.3 15.5-1.5 0.3-0.8 1-1.5 1.5-1.5 0.5 0 2.2-1.3 3.8-2.9 1.5-1.6 3.9-3.4 5.5-4 1.5-0.6 4.1-1.1 5.7-1.1 1.6 0 3.2-0.6 3.3-1.3 0.3-0.9 1.1-0.9 3.8 0 1.9 0.7 4.4 1.3 5.7 1.3 1.2 0 2.2 0.5 2.2 1 0 0.5 0.9 1 2 1 1.1 0 2 0.5 2 1 0 0.5 0.9 1 2 1 1.1 0 2 0.5 2 1 0 0.5 2 1 4.5 1 3.7 0 5.1-0.6 7.8-3.3 2.6-2.5 3.5-4.4 4.1-8.7 0.4-3 1.1-14.5 1.4-25.6 0.7-19.7 0.8-20.1 3.4-24 1.5-2.1 4.7-5.8 7.3-8.2 2.5-2.3 5-4.2 5.5-4.2 0.6 0 2.1-1 3.4-2.3 1.3-1.2 3.8-3.6 5.7-5.3 1.9-1.7 5-4.8 6.9-7 2-2.1 5-5.9 6.7-8.4 1.7-2.5 4-7.6 5.1-11.5 1.1-3.9 2.6-9.2 3.4-11.9 0.7-2.7 1.6-5 2.1-5.2 0.4-0.2 0.7-5.1 0.7-10.9 0-7.7 0.4-10.9 1.4-12 0.8-0.8 3.1-1.5 5-1.5 2 0 3.6-0.4 3.6-1 0-0.6 0.7-1 1.5-1 0.8 0 3.1-1.5 5-3.3 2-1.7 4.1-4.5 4.8-6 0.6-1.5 1.5-2.8 2-2.7 0.4 0 0.7-9.9 0.7-22 0-14-0.4-22-1-22-0.5 0-0.8-0.4-0.5-1 0.3-0.6-0.1-1-0.7-1-0.7 0-2-0.9-2.8-2-1.5-2-2.2-2-127-1.9-87.8 0.1-126.7 0.5-129.5 1.3z"/>
		<path id="Path 2" fill-rule="evenodd" class="s0" d="m417.5 420.4c12.2 0.3 16.3 0.8 22 2.6 3.9 1.2 10.1 3.8 14 5.7 3.9 1.9 8.8 4.8 11 6.4 2.2 1.6 6.6 5.5 9.8 8.7 3.2 3.1 7.2 7.8 8.8 10.5 1.6 2.6 3.2 4.7 3.6 4.7 0.5 0 0.9 0.6 1 1.3 0.1 0.6 1.5 4.6 3.2 8.7 1.8 4.1 3.9 11.3 4.8 16 1.1 6 1.4 11.4 1 18.5-0.4 5.5-1.3 12.7-2.2 16-0.9 3.3-3.1 9.3-5 13.3-1.9 3.9-3.6 7.5-3.7 8-0.1 0.4-1.2 1.8-2.3 3.2-1.1 1.3-4.9 5.5-8.5 9.3-3.6 3.8-9.4 8.8-13 11.2-3.6 2.4-8.1 4.9-10 5.6-1.9 0.7-3.7 1.5-4 1.9-0.3 0.4-2.8 1.4-5.5 2.4-2.8 0.9-8.5 2.3-12.8 3.1-4.2 0.8-11.2 1.5-15.5 1.5-4.2-0.1-11.1-0.7-15.2-1.4-4.1-0.8-11-2.5-15.3-4-4.2-1.4-8.9-3.4-10.5-4.4-1.5-1.1-4.7-3.2-7.1-4.8-2.4-1.6-6.5-4.7-9-7-2.5-2.2-7.1-7.4-10.1-11.5-3-4.1-5.8-7.6-6.3-7.9-0.5-0.3-0.8-1-0.8-1.5 0.1-0.5-1-3.7-2.3-7-1.3-3.3-3.2-9.8-4.1-14.5-1.3-6.3-1.6-11.4-1.3-20 0.4-9.6 1.1-13 3.7-20.5 1.8-4.9 3.5-10.1 3.8-11.5 0.3-1.4 1.3-3.2 2.2-4 0.9-0.8 2.4-2.7 3.4-4.2 0.9-1.6 4.7-6 8.4-9.9 3.8-3.9 9.7-9.1 13.3-11.4 3.6-2.4 9.6-5.7 13.5-7.3 3.9-1.6 9.5-3.4 12.5-4 3-0.7 6.4-1.4 7.5-1.6 1.1-0.3 8.7-0.3 17-0.2zm-27 39.9c-3.3 2-7.4 5.3-9.1 7.4-1.7 2.1-4.2 5.8-5.6 8.3-1.5 2.5-3.4 7.2-4.4 10.5-1.2 4.5-1.5 8.3-1.2 15 0.4 5.8 1.3 11 2.7 14.5 1.2 3 3.7 7.8 5.6 10.5 1.9 2.8 5.5 6.7 8 8.8 2.5 2 5.5 4.1 6.7 4.6 1.3 0.5 2.7 0.9 3.3 0.9 0.6 0 1.2 0.4 1.5 1 0.3 0.5 2.6 1.4 5.2 2 2.7 0.7 7.8 1.2 11.5 1.2 3.9 0 9.6-0.8 13.3-1.9 3.9-1.2 9-3.8 12.7-6.5 3.5-2.5 7.1-5.8 8-7.3 1-1.6 2.1-3 2.5-3.3 0.3-0.3 2.1-3.6 3.9-7.5 2.8-6.1 3.3-8.3 3.7-17 0.3-8.5 0.1-11-1.8-16.5-1.3-3.6-3.3-8.1-4.5-10-1.2-1.9-4-5.5-6.2-8-2.6-2.9-6.8-5.9-11.9-8.5-7.6-3.8-8.3-3.9-18.9-4.2-7-0.2-12.4 0.2-15 1-2.2 0.7-6.7 3-10 5z"/>
		<path id="Path 3" class="s1" d="m609 247c0 0.6-0.9 1-2 1-1.1 0-2 0.4-2 1 0 0.6-0.8 1-1.9 1-1 0-2.9 1.1-4.2 2.5-1.3 1.4-2.7 2.5-3.1 2.5-0.5 0-2.3 1.2-4 2.6-1.8 1.4-4.8 4.5-6.6 6.8-1.8 2.2-3.3 5-3.3 6.1 0.1 1.1-1.3 4-3 6.5-1.6 2.5-3.2 5.6-3.5 7-0.3 1.4-0.9 3.3-1.5 4.3-0.5 0.9-0.9 4.8-0.9 8.7 0 6.2 0.2 7.1 2 7.5 1.1 0.3 2 1.2 2 2 0 1.3 15.1 1.5 129.6 1.5 122.1 0 129.6-0.1 131.2-1.7 1.4-1.6 1.4-3.2 0.4-14.8-0.7-7.1-1.2-13.7-1.2-14.5 0-1.3-0.1-1.3-1 0-0.9 1.3-1 1.3-1 0 0-0.8-0.5-2.7-1.2-4.2-0.7-1.6-1.6-2.8-2-2.8-0.5 0-0.8-0.7-0.8-1.5 0-0.8-0.5-1.5-1-1.5-0.5 0-1-0.6-1-1.2 0-0.7-2.5-3.7-5.5-6.5-3-2.9-6.5-5.7-7.7-6.3-1.3-0.5-3-1.4-3.8-1.8-0.8-0.5-2.5-1.4-3.7-2-1.3-0.7-3.4-1.2-4.8-1.2-1.4 0-2.5-0.4-2.5-1 0-0.7-32.7-1-96-1-63.3 0-96 0.3-96 1z"/>
	</g>
</svg>