<svg version="1.2" xmlns="http://www.w3.org/2000/svg" viewBox="0 0 1024 1024" width="1024" height="1024">
	<title>logoMoveHive_sem_fundo</title>
	<style>
		.s0 { fill: #f9c232 } 
		.s1 { fill: #ffffff } 
	</style>
	<g id="Layer 1 copy">
		<path id="Path 0" class="s0" d="m688 173.1c-6.7 0.5-12 1.7-18 3.9-4.7 1.7-10.2 3.8-12.3 4.6-2 0.8-6.3 2.9-9.4 4.7-3.1 1.7-7.3 5.2-9.2 7.7-2 2.5-5.8 6.8-8.6 9.6-2.8 2.9-5.7 6.4-6.5 7.8-0.8 1.5-1.8 2.6-2.3 2.6-0.4 0-0.7 0.9-0.7 2 0 1.1-0.5 2-1 2-0.5 0-1 2.5-1 5.5 0 3.6 0.5 6 1.5 7 1.3 1.3 12.2 1.5 85.5 1.5 65.2 0 84.6-0.3 86.5-1.2 2.3-1.2 2.6-1.9 2.5-6.8-0.1-4.9-0.5-6-3.9-10-2.2-2.5-5.1-6.7-6.5-9.5-1.4-2.7-3.6-6.1-4.8-7.5-1.3-1.4-4-3.5-6.1-4.7-2-1.3-3.9-3.2-4.2-4.3-0.3-1.1-1.1-2-1.8-2-0.6 0-2.1-0.8-3.2-1.7-1.1-1-3.2-2.5-4.8-3.3-1.5-0.8-2.7-1.8-2.7-2.2 0-0.5-0.7-0.8-1.5-0.8-0.8 0-2.3-0.4-3.3-0.9-0.9-0.5-3.3-1.3-5.2-1.9-1.9-0.6-8.5-1.6-14.5-2.2-6-0.5-16.4-0.9-23-0.9-6.6 0.1-16.3 0.5-21.5 1zm-108.5 152.3c-2.2 0.6-5 2.1-6.3 3.3-2.1 2.2-2.2 2.9-2.2 22.8 0 13 0.4 20.5 1 20.5 0.5 0 1 1.4 1 3 0 1.6 0.5 3 1 3 0.5 0 1 0.7 1 1.5 0 0.8 1.1 2.6 2.5 4 1.4 1.4 3.6 2.5 5 2.5 1.4 0 2.5 0.4 2.5 1 0 0.6 1.8 1 4 1 2.2 0 4 0.4 4 1 0 0.6 0.9 1 2 1 1.9 0 2 0.7 2 11 0 6.7 0.4 11 1 11 0.5 0 1 1.6 1 3.5 0 1.9 0.7 4.2 1.5 5 1.2 1.2 5.2 1.5 22.5 1.5 11.5 0 21 0.3 21 0.7 0 0.5-3.2 9.8-7.1 20.8-5.9 17-6.8 20.1-5.4 20.7 0.8 0.5 1.5 1.2 1.5 1.8 0 0.6 1.8 2.8 4 5 2.2 2.2 4 4.6 4 5.2 0 0.7 0.9 2 2 2.8 1.5 1.1 2 2.6 2 6.2 0 2.7 0.5 4.8 1 4.8 0.6 0 1 7 1 19 0 12-0.4 19-1 19-0.6 0-1 12.7-1 36 0 34.4 0.1 36.2 2.1 40.7 1.2 2.7 3 6.6 4 8.8 1.1 2.2 1.9 4.3 1.9 4.7 0 0.5 1 1.8 2.2 3.1 1.3 1.3 3.5 2.6 5 3 1.6 0.4 7 0.2 12-0.3 5.1-0.6 10.2-1.7 11.3-2.4 1.1-0.7 3.5-3.5 5.2-6.2 1.8-2.7 4-7.4 4.8-10.4 0.9-3.4 1.5-10 1.5-17.3 0-8.5 0.3-11.8 1.2-12.1 0.7-0.3-7.8-0.5-19-0.5l-20.2-0.1v-153h107v33h-70v27h60v31h-60v30c13.3 0 15.1-0.3 15.5-1.5 0.3-0.8 1-1.5 1.5-1.5 0.5 0 2.2-1.3 3.7-2.9 1.6-1.6 4-3.4 5.5-4 1.6-0.6 4.2-1.1 5.8-1.1 1.6 0 3.2-0.6 3.3-1.3 0.3-0.9 1.1-0.9 3.8 0 1.9 0.7 4.4 1.3 5.6 1.3 1.3 0 2.3 0.5 2.3 1 0 0.5 0.9 1 2 1 1.1 0 2 0.5 2 1 0 0.5 0.9 1 2 1 1.1 0 2 0.5 2 1 0 0.5 2.2 1 5 1 2.7 0 5-0.5 5-1 0-0.5 0.7-1 1.5-1 0.8 0 2.1-1 2.8-2.3 0.8-1.2 1.7-4.7 2.1-7.7 0.4-3 1.1-14.5 1.4-25.6 0.7-19.7 0.8-20.1 3.4-24 1.5-2.1 4.7-5.8 7.3-8.2 2.5-2.3 5-4.2 5.5-4.2 0.6 0 2.1-1 3.4-2.3 1.3-1.2 3.8-3.6 5.7-5.3 1.9-1.7 5-4.8 6.9-7 2-2.1 5-5.9 6.7-8.4 1.7-2.5 4-7.6 5.1-11.5 1.1-3.9 2.6-9.2 3.4-11.9 0.7-2.7 1.6-5 2-5.2 0.5-0.2 0.8-5.1 0.8-10.9 0-7.7 0.4-10.9 1.4-12 0.8-0.8 3.1-1.5 5-1.5 2 0 3.6-0.4 3.6-1 0-0.6 0.7-1 1.5-1 0.8 0 3.1-1.5 5-3.3 2-1.7 4.1-4.5 4.8-6 0.6-1.5 1.5-2.8 1.9-2.7 0.5 0 0.8-9.9 0.8-22 0-14-0.4-22-1-22-0.5 0-0.8-0.4-0.5-1 0.3-0.6-0.1-1-0.8-1-0.6 0-1.9-0.9-2.7-2-1.5-2-2.2-2-127-1.9-87.8 0.1-126.7 0.5-129.5 1.3z"/>
		<path id="Path 1" class="s1" d="m603.1 425.3c-0.8 1.7-1.5 3.6-1.6 4.2-0.1 0.5-7.5 22.9-16.4 49.7-8.8 26.9-16.4 48.8-16.9 48.8-0.4 0-5.2-13.6-10.6-30.2-5.5-16.7-13.2-40.2-17.1-52.3l-7.2-22c-39.9-0.5-41.3-0.4-40.7 1.2 0.3 1 4.8 13.7 10 28.3 5.3 14.6 12.7 35.5 16.6 46.5 3.9 11 7.1 20.5 7.3 21 0.1 0.5 0.7 2.4 1.4 4 0.7 1.6 3.3 8.9 5.7 16 2.5 7.1 5.1 14.6 5.8 16.5 0.8 1.9 1.4 3.7 1.4 4 0 0.3 0.6 1.9 1.2 3.5 0.7 1.6 1.8 4.6 2.5 6.5l1.2 3.5h45.6c9.9-28.7 15.7-45.5 19.3-56 3.6-10.5 8.8-25.3 11.5-33 2.8-7.7 5.4-14.8 6-15.8 0.5-0.9 0.9-2.2 0.9-2.7 0-0.6 3.4-10.6 7.5-22.3 4.1-11.6 7.5-21.5 7.5-22 0-0.4-8.9-0.7-19.8-0.7h-19.9zm54 73.2v76.5h108v-32h-71v-30h60v-31h-60v-27h70v-33h-107zm-270 132.8v30.7h-59v-61h-32.5l-6.5 6.5v139l5.5 5.6 33.5-0.1v-57l58.5 0.5 0.5 56.5h38v-151l-38-0.5zm65.3-30.4c-0.4 0.3-0.6 34.4-0.5 75.9l0.2 75.3h39v-151c-26-0.1-34.5-0.3-35.8-0.4-1.2-0.2-2.6 0-2.9 0.2zm55.7 14.4c2.6 7.9 7.9 23.3 11.8 34.3 3.9 11 13.1 37.3 20.5 58.5 7.5 21.2 13.8 39.7 14.1 41.2l0.6 2.8 51.2-0.5c15.8-45.7 23.7-68.7 27.8-80.5 4-11.8 7.7-21.6 8.2-21.8 0.4-0.1 0.6-0.7 0.3-1.2-0.3-0.5 1.3-6.1 3.6-12.3 2.2-6.1 4.5-11.7 5-12.2 0.5-0.5 0.7-1.3 0.4-1.8-0.3-0.4-0.1-1.6 0.5-2.7 0.7-1.5 0.5-2.9-0.9-5.8-1.1-2-2.8-5.6-3.8-8l-1.8-4.3-28 0.1c-3.6 11.2-11.9 36.5-20.7 63.5l-16.1 49c-2.7-7.8-7.1-21-11.5-34.5-4.4-13.5-11.7-36-16.2-50-4.4-14-8.3-26.1-8.6-26.8-0.3-0.9-5.4-1.2-20.8-1.2h-20.4zm185.6-10.5c-0.3 2.1-2.4 6.6-4.6 10-2.2 3.4-4.9 6.7-6 7.2-1.1 0.6-5.9 1.5-10.8 2-4.8 0.6-9.4 1.1-10.2 1.2-0.8 0-0.2 0.4 1.5 0.7l3 0.7 0.5 125.4h98v-31.5h-62v-29.5c44.7 0.1 50.8-0.2 51.7-1.2 0.7-0.8 1.3-6.1 1.5-14.4 0.2-7.2 0-13-0.5-12.8-0.4 0.3-0.9 0-1.2-0.6-0.3-0.6-10-1-26-1h-25.5v-28h62l0.5-32h-71.4z"/>
		<path id="Path 2" class="s0" d="m609 247c0 0.6-0.9 1-2 1-1.1 0-2 0.4-2 1 0 0.6-0.8 1-1.9 1-1 0-2.9 1.1-4.2 2.5-1.3 1.4-2.9 2.6-3.4 2.6-0.5 0-2.6 1.4-4.5 3.2-1.9 1.8-4.7 4.7-6.3 6.5-1.5 1.8-2.7 4.2-2.7 5.4 0.1 1.3-0.9 3.7-2.2 5.3-1.2 1.6-2.9 5.1-3.8 7.6-0.8 2.6-1.8 5.1-2.3 5.5-0.4 0.5-0.7 4.2-0.7 8.2 0 6.4 0.2 7.3 2 7.7 1.1 0.3 2 1.2 2 2 0 1.3 15.1 1.5 129.6 1.5 122.1 0 129.6-0.1 131.2-1.7 1.4-1.6 1.4-3.2 0.4-14.8-0.7-7.1-1.2-13.7-1.2-14.5 0-1.3-0.1-1.3-1 0-0.9 1.3-1 1.3-1 0 0-0.8-0.5-2.7-1.2-4.2-0.7-1.6-1.6-2.8-2-2.8-0.5 0-0.8-0.7-0.8-1.5 0-0.8-0.5-1.5-1-1.5-0.5 0-1-0.6-1-1.2 0-0.7-2.5-3.7-5.5-6.5-3-2.9-6.5-5.7-7.7-6.3-1.3-0.5-3-1.4-3.8-1.8-0.8-0.5-2.5-1.4-3.7-2-1.3-0.7-3.4-1.2-4.8-1.2-1.4 0-2.5-0.4-2.5-1 0-0.7-32.7-1-96-1-63.3 0-96 0.3-96 1z"/>
		<path id="Path 3" fill-rule="evenodd" class="s1" d="m417.5 420.4c12.2 0.3 16.3 0.8 22 2.6 3.9 1.2 10.1 3.8 14 5.7 3.9 1.9 8.8 4.8 11 6.4 2.2 1.6 6.6 5.5 9.8 8.7 3.2 3.1 7.2 7.8 8.8 10.5 1.6 2.6 3.2 4.7 3.6 4.7 0.5 0 0.9 0.6 1 1.3 0.1 0.6 1.5 4.6 3.2 8.7 1.8 4.1 3.9 11.3 4.8 16 1.1 6 1.4 11.4 1 18.5-0.4 5.5-1.3 12.7-2.2 16-0.9 3.3-3.1 9.3-5 13.3-1.9 3.9-3.5 7.5-3.4 8 0 0.4-0.3 0.9-0.8 1.2-0.4 0.3-1.7 1.5-2.8 2.7-1.8 2-1.8 2.5-0.5 4 1.2 1.6 1.2 1.6 0 0.6-1.2-1-2.8 0-9 6-4.1 4-9.6 8.5-12.3 10-2.6 1.5-4.7 3-4.7 3.5 0 0.4-0.6 0.8-1.3 0.9-0.6 0.1-4.1 1.4-7.7 2.9-3.6 1.4-10.6 3.5-15.5 4.5-4.9 1-12.6 1.9-17 1.9-4.4-0.1-11.4-0.7-15.5-1.4-4.1-0.8-11-2.5-15.3-4-4.2-1.4-8.9-3.4-10.4-4.4-1.6-1.1-4.8-3.2-7.2-4.8-2.4-1.6-6.4-4.7-8.9-6.9-2.5-2.2-6.6-6.8-9.1-10.2-2.5-3.4-5-5.9-5.5-5.5-0.5 0.4-0.6 0.1-0.3-0.5 0.4-0.7 0.1-1.9-0.6-2.5-0.7-0.7-1.4-1.8-1.5-2.3-0.1-0.5-1.3-3.7-2.6-7-1.3-3.3-3.2-9.8-4.1-14.5-1.3-6.4-1.6-11.4-1.2-20 0.3-8.6 1.1-13.4 3-19 1.4-4.1 3.1-9.1 3.9-11.1 0.7-2 2.2-4.8 3.3-6.4 1.1-1.5 4.1-5.3 6.6-8.4 2.5-3.1 6.7-7.5 9.2-9.8 2.6-2.4 7.3-6 10.5-8 3.1-2 8.6-4.9 12.2-6.3 3.6-1.5 9-3.2 12-3.8 3-0.7 6.4-1.4 7.5-1.6 1.1-0.3 8.8-0.3 17-0.2zm-27 39.9c-3.3 2-7.4 5.3-9.1 7.4-1.7 2.1-4.2 5.8-5.6 8.3-1.5 2.5-3.4 7.2-4.4 10.5-1.2 4.5-1.5 8.3-1.2 15 0.4 5.8 1.3 11 2.7 14.5 1.2 3 3.7 7.8 5.6 10.5 1.9 2.8 5.5 6.7 8 8.8 2.5 2 5.5 4.1 6.8 4.6 1.2 0.5 2.6 0.9 3.2 0.9 0.6 0 1.2 0.4 1.5 1 0.3 0.5 2.6 1.4 5.3 2 2.6 0.7 7.7 1.2 11.5 1.2 3.8 0 9.5-0.8 13.2-1.9 3.9-1.2 9-3.8 12.8-6.5 4.1-3 5.9-5 5.5-5.8q-0.8-1.3 0.5-0.5c0.7 0.4 1.7-0.2 2.5-1.8 0.6-1.4 1.4-2.5 1.7-2.5 0.3 0 2-3.2 3.9-7.2 3-6.4 3.5-8.5 3.9-17.3 0.3-8.5 0.1-11-1.8-16.5-1.3-3.6-3.3-8.1-4.5-10-1.2-1.9-4-5.5-6.2-8-2.6-2.9-6.8-5.9-11.9-8.5-7.6-3.8-8.3-3.9-18.9-4.2-7-0.2-12.4 0.2-15 1-2.2 0.7-6.7 3-10 5zm-233.5-37.3h40.5l2.8 4.8c1.5 2.6 7 11.5 12.2 19.7 5.2 8.3 10.3 16.4 11.3 18 1.1 1.6 3.9 6.2 6.3 10.2 2.4 3.9 4.6 7 4.9 6.9 0.3-0.2 6.8-10.4 14.4-22.7 7.7-12.3 14-22.9 14-23.6 0.1-0.6 0.3-0.9 0.6-0.7 0.3 0.2 1.5-1.5 2.8-3.6 1.2-2.2 2.1-4.1 2-4.2-0.1-0.2 0.7-1.3 1.7-2.6 2-2.2 2.4-2.2 43.5-2.2v74.3c0 68.9-0.2 74.3-1.8 76-1.4 1.5-3.5 1.8-24.7 1.7l-3.9-3.2c-2.1-1.8-4.4-4.6-5.2-6.3-1.2-2.4-1.4-10.6-1.4-84l-8.1 13c-4.4 7.2-10.3 16.4-13 20.5-2.7 4.1-4.7 8.1-4.4 8.8 0.3 0.6 0.1 1-0.5 0.7-0.6-0.3-2.6 2.2-8 11.5h-16.5l-5.5-9.3c-3-5-7.4-12.1-9.8-15.7-2.3-3.6-4.2-6.6-4.2-6.7 0-0.2-1.9-3.3-4.2-7-2.3-3.8-4.9-7.8-5.8-9-0.8-1.2-1.8-1.9-2.3-1.5-0.4 0.4-0.7 19.6-0.7 42.7-0.1 38.3-0.2 42.2-1.8 43.7-1.5 1.5-3.9 1.8-35.2 1.8z"/>
	</g>
</svg>